.
..............................Site Info...........................

 -   http://www.scenetime.com  *_*   

Scenetime .Always on time . friendly online private torrent community ..

     We care to share . Join us on  http://www.scenetime.com 

    Be the first to get new release at  http://www.scenetime.com

        Seed back for speed


...................................NFO:.................................................[img]http://i.imgbox.com/aap3uLx0.jpg
[/img]


[color=green][size=3]General Info[/size][/color]
ENCODER     : Kobe
Source Video: DVD9-BALLBUSTER 
Source Audio: DVD9-BALLBUSTER 
Channel     : 6 channels 
IMDB        : http://www.imdb.com/title/tt1715320/
subs        : None  

Video
ID                                       : 0
Format                                   : MPEG-4 Visual
Format profile                           : Advanced Simple@L5
Format settings, BVOP                    : 2
Format settings, QPel                    : No
Format settings, GMC                     : No warppoints
Format settings, Matrix                  : Default (H.263)
Muxing mode                              : Packed bitstream
Codec ID                                 : XVID
Codec ID/Hint                            : XviD
Duration                                 : 1h 23mn
Bit rate                                 : 1 997 Kbps
Width                                    : 720 pixels
Height                                   : 384 pixels
Display aspect ratio                     : 1.875
Frame rate                               : 23.976 fps
Color space                              : YUV
Chroma subsampling                       : 4:2:0
Bit depth                                : 8 bits
Scan type                                : Progressive
Compression mode                         : Lossy
Bits/(Pixel*Frame)                       : 0.301
Stream size                              : 1.17 GiB (81%)
Writing library                          : XviD 64


Audio
ID                                       : 1
Format                                   : AC-3
Format/Info                              : Audio Coding 3
Mode extension                           : CM (complete main)
Codec ID                                 : 2000
Duration                                 : 1h 23mn
Bit rate mode                            : Constant
Bit rate                                 : 448 Kbps
Channel(s)                               : 6 channels
Channel positions                        : Front: L C R, Side: L R, LFE
Sampling rate                            : 48.0 KHz
Bit depth                                : 16 bits
Compression mode                         : Lossy
Stream size                              : 268 MiB (18%)
Alignment                                : Aligned on interleaves
Interleave, duration                     : 64 ms (1.53 video frames)
Interleave, preload duration             : 192 ms
Title                                    : bends T80 3_2ch 448Kbps DELAY 0ms







NOTE: 
DVDR was really nice. Just did a straight rip off of it
Enjoy. 




 

[color=Green][size=3]Greetz[/size][/color]
unevano,Mr.hive :rock: R3dRuM,rfcgazza,Killerhz,cooperman,ANALOG,26K,Inspiral,HOPE,Toffee :rock:, KoDeKinG :P 

[img]http://i.imgbox.com/aafWjVyI.png[/img]
[img]http://i.imgbox.com/aabL9B8B.png[/img]
[img]http://i.imgbox.com/aanBvbuR.png[/img]




[img]http://i.imgbox.com/aacw6ohs.jpg[/img]